<?xml version="1.0" encoding="UTF-8"?>
<!DOCTYPE svg PUBLIC "-//W3C//DTD SVG 1.1//EN" "http://www.w3.org/Graphics/SVG/1.1/DTD/svg11.dtd">
<svg xmlns="http://www.w3.org/2000/svg" version="1.1" width="600px" height="338px" style="shape-rendering:geometricPrecision; text-rendering:geometricPrecision; image-rendering:optimizeQuality; fill-rule:evenodd; clip-rule:evenodd" xmlns:xlink="http://www.w3.org/1999/xlink">
<g><path style="opacity:0.051" fill="#8c89ff" d="M 252.5,31.5 C 251.5,31.5 250.5,31.5 249.5,31.5C 250.5,28.8333 251.5,28.8333 252.5,31.5 Z"/></g>
<g><path style="opacity:1" fill="#2218ff" d="M 249.5,31.5 C 250.5,31.5 251.5,31.5 252.5,31.5C 254.427,34.9431 257.427,36.9431 261.5,37.5C 262.609,37.5569 263.609,37.8902 264.5,38.5C 264.973,39.9063 265.973,40.573 267.5,40.5C 268.49,85.4576 268.823,130.458 268.5,175.5C 268.285,177.179 268.952,178.179 270.5,178.5C 270.5,179.167 270.5,179.833 270.5,180.5C 269.185,183.627 269.518,186.627 271.5,189.5C 271.935,192.157 272.935,194.491 274.5,196.5C 274.66,198.153 275.326,199.486 276.5,200.5C 277.338,200.842 277.672,201.508 277.5,202.5C 277.772,205.732 279.438,207.732 282.5,208.5C 283.5,209.833 284.5,211.167 285.5,212.5C 287.465,217.798 291.132,221.465 296.5,223.5C 297.167,223.833 297.833,224.167 298.5,224.5C 298.281,225.675 298.614,226.675 299.5,227.5C 300.429,228.55 301.095,228.55 301.5,227.5C 302.492,227.328 303.158,227.662 303.5,228.5C 304.574,231.068 306.574,232.735 309.5,233.5C 310.107,233.376 310.44,233.043 310.5,232.5C 311.167,232.5 311.833,232.5 312.5,232.5C 312.281,233.675 312.614,234.675 313.5,235.5C 315.356,235.208 317.022,235.208 318.5,235.5C 319.167,235.5 319.833,235.5 320.5,235.5C 320.414,236.496 320.748,237.329 321.5,238C 324.941,239.446 328.274,240.279 331.5,240.5C 332.298,240.043 332.631,239.376 332.5,238.5C 334.447,235.077 335.947,231.41 337,227.5C 337.765,225.934 337.598,224.601 336.5,223.5C 336.5,222.833 336.5,222.167 336.5,221.5C 338.339,219.347 339.339,216.68 339.5,213.5C 340.833,166.833 340.833,120.167 339.5,73.5C 341.794,71.347 344.46,69.6803 347.5,68.5C 351.002,68.9236 353.335,67.5902 354.5,64.5C 354.833,64.5 355.167,64.5 355.5,64.5C 356.721,65.4646 358.054,65.298 359.5,64C 360.252,63.3292 360.586,62.4959 360.5,61.5C 360.833,61.5 361.167,61.5 361.5,61.5C 362.623,62.7574 363.289,62.4241 363.5,60.5C 365.179,60.7148 366.179,60.0481 366.5,58.5C 368.645,57.0115 370.978,56.0115 373.5,55.5C 375.027,55.573 376.027,54.9063 376.5,53.5C 377.209,52.596 378.209,52.2627 379.5,52.5C 383.679,51.7084 387.013,49.7084 389.5,46.5C 390.167,46.5 390.833,46.5 391.5,46.5C 393.455,46.2014 394.789,45.2014 395.5,43.5C 400.605,40.3994 405.938,37.7327 411.5,35.5C 414.658,35.0173 417.658,34.0173 420.5,32.5C 420.833,32.5 421.167,32.5 421.5,32.5C 421.369,33.2389 421.536,33.9056 422,34.5C 422.69,35.7383 423.19,35.7383 423.5,34.5C 424.391,35.1098 425.391,35.4431 426.5,35.5C 426.5,36.8333 427.167,37.5 428.5,37.5C 429.287,39.1042 430.62,39.7709 432.5,39.5C 432.5,40.1667 432.833,40.5 433.5,40.5C 433.783,41.2891 434.283,41.9558 435,42.5C 435.5,86.8321 435.667,131.165 435.5,175.5C 435.5,178.167 435.5,180.833 435.5,183.5C 433.882,186.888 432.882,190.554 432.5,194.5C 432.5,195.167 432.5,195.833 432.5,196.5C 430.903,197.737 429.737,199.404 429,201.5C 428.51,202.793 428.343,204.127 428.5,205.5C 425.949,208.307 424.282,211.64 423.5,215.5C 422.094,215.973 421.427,216.973 421.5,218.5C 420.833,219.833 420.167,221.167 419.5,222.5C 417.167,222.833 415.833,224.167 415.5,226.5C 412.37,231.393 408.37,235.393 403.5,238.5C 403.565,238.062 403.399,237.728 403,237.5C 401.519,238.471 400.685,239.804 400.5,241.5C 400.167,241.5 399.833,241.5 399.5,241.5C 397.368,241.554 396.035,242.554 395.5,244.5C 394.341,246.25 392.674,247.25 390.5,247.5C 388.821,247.285 387.821,247.952 387.5,249.5C 387.158,250.338 386.492,250.672 385.5,250.5C 383.668,249.282 382.668,249.949 382.5,252.5C 381.609,253.11 380.609,253.443 379.5,253.5C 377.447,253.402 375.78,254.069 374.5,255.5C 371.606,256.256 369.606,257.923 368.5,260.5C 367.609,261.11 366.609,261.443 365.5,261.5C 361.36,262.263 358.027,264.263 355.5,267.5C 354.833,267.5 354.5,267.833 354.5,268.5C 352.504,267.938 350.504,268.438 348.5,270C 347.748,270.671 347.414,271.504 347.5,272.5C 347.167,272.5 346.833,272.5 346.5,272.5C 345.673,271.561 345.006,271.895 344.5,273.5C 343.232,275.047 341.565,276.047 339.5,276.5C 339.565,276.062 339.399,275.728 339,275.5C 337.583,276.078 336.75,277.078 336.5,278.5C 336.167,278.5 335.833,278.5 335.5,278.5C 334.673,277.561 334.006,277.895 333.5,279.5C 333.5,280.167 333.167,280.5 332.5,280.5C 332.44,279.957 332.107,279.624 331.5,279.5C 328.961,281.2 326.295,282.7 323.5,284C 322.748,284.671 322.414,285.504 322.5,286.5C 321.609,287.11 320.609,287.443 319.5,287.5C 317.368,287.554 316.035,288.554 315.5,290.5C 315.167,290.5 314.833,290.5 314.5,290.5C 311.715,289.916 310.048,290.916 309.5,293.5C 309.167,293.5 308.833,293.5 308.5,293.5C 307.167,293.5 306.5,294.167 306.5,295.5C 305.167,295.833 303.833,296.167 302.5,296.5C 300.821,296.285 299.821,296.952 299.5,298.5C 298.833,298.5 298.167,298.5 297.5,298.5C 296.673,297.561 296.006,297.895 295.5,299.5C 295.167,299.5 294.833,299.5 294.5,299.5C 293.127,299.343 291.793,299.51 290.5,300C 291.056,300.383 291.389,300.883 291.5,301.5C 290.167,301.5 288.833,301.5 287.5,301.5C 287.265,300.903 286.765,300.57 286,300.5C 283.088,302.066 279.921,302.899 276.5,303C 275.142,303.934 273.808,304.768 272.5,305.5C 270.833,305.5 269.167,305.5 267.5,305.5C 266.508,303.974 265.008,303.307 263,303.5C 260.779,303.393 258.946,304.06 257.5,305.5C 254.941,305.802 252.607,305.468 250.5,304.5C 250.611,303.883 250.944,303.383 251.5,303C 248.854,302.503 246.187,302.336 243.5,302.5C 243.38,301.414 242.713,300.747 241.5,300.5C 240.584,300.543 239.917,300.876 239.5,301.5C 238.167,301.5 236.833,301.5 235.5,301.5C 235.179,299.952 234.179,299.285 232.5,299.5C 231.209,299.737 230.209,299.404 229.5,298.5C 228.22,297.069 226.553,296.402 224.5,296.5C 224.167,296.5 223.833,296.5 223.5,296.5C 222.232,294.953 220.565,293.953 218.5,293.5C 218.167,293.5 217.833,293.5 217.5,293.5C 216.215,291.341 214.548,290.674 212.5,291.5C 211.167,290.5 209.833,289.5 208.5,288.5C 207.7,286.259 206.034,285.259 203.5,285.5C 201.703,284.607 200.37,283.274 199.5,281.5C 199.167,280.833 198.833,280.167 198.5,279.5C 195.192,276.529 191.859,273.529 188.5,270.5C 187.118,268.451 185.452,266.785 183.5,265.5C 182.833,265.5 182.5,265.167 182.5,264.5C 182.715,262.821 182.048,261.821 180.5,261.5C 180.573,259.973 179.906,258.973 178.5,258.5C 178.25,256.326 177.25,254.659 175.5,253.5C 175.245,251.033 174.245,249.033 172.5,247.5C 172.245,245.033 171.245,243.033 169.5,241.5C 169.5,240.833 169.5,240.167 169.5,239.5C 169.241,236.728 168.241,234.395 166.5,232.5C 166.5,231.833 166.5,231.167 166.5,230.5C 166.11,227.161 165.61,223.827 165,220.5C 164.617,219.944 164.117,219.611 163.5,219.5C 162.167,218.5 162.167,217.5 163.5,216.5C 163.5,171.5 163.5,126.5 163.5,81.5C 164.833,80.8333 166.167,80.1667 167.5,79.5C 171.002,79.9236 173.335,78.5902 174.5,75.5C 175.167,75.1667 175.833,74.8333 176.5,74.5C 176.435,74.9382 176.601,75.2716 177,75.5C 178.417,74.9221 179.25,73.9221 179.5,72.5C 179.833,72.5 180.167,72.5 180.5,72.5C 180.435,72.9382 180.601,73.2716 181,73.5C 182.039,72.7562 182.539,71.7562 182.5,70.5C 183.833,69.8333 185.167,69.1667 186.5,68.5C 188.179,68.7148 189.179,68.0481 189.5,66.5C 189.833,66.5 190.167,66.5 190.5,66.5C 194.86,65.9956 198.193,63.9956 200.5,60.5C 201.167,60.5 201.5,60.1667 201.5,59.5C 203.472,60.5167 204.805,59.85 205.5,57.5C 207.179,57.7148 208.179,57.0481 208.5,55.5C 208.833,55.5 209.167,55.5 209.5,55.5C 211.632,55.4456 212.965,54.4456 213.5,52.5C 213.833,52.5 214.167,52.5 214.5,52.5C 214.435,52.9382 214.601,53.2716 215,53.5C 216.039,52.7562 216.539,51.7562 216.5,50.5C 217.833,49.8333 219.167,49.1667 220.5,48.5C 222.179,48.7148 223.179,48.0481 223.5,46.5C 224.605,45.3995 225.938,44.7329 227.5,44.5C 230.857,44.7841 233.191,43.4507 234.5,40.5C 235.167,40.5 235.5,40.1667 235.5,39.5C 237.483,39.8432 238.817,39.1765 239.5,37.5C 241.179,37.7148 242.179,37.0481 242.5,35.5C 242.833,35.5 243.167,35.5 243.5,35.5C 243.435,35.9382 243.601,36.2716 244,36.5C 246.375,35.2853 248.209,33.6186 249.5,31.5 Z M 249.5,53.5 C 250.499,93.9966 250.832,134.663 250.5,175.5C 250.779,180.686 251.779,186.019 253.5,191.5C 253.5,191.833 253.5,192.167 253.5,192.5C 253.932,193.71 254.599,194.71 255.5,195.5C 255.62,197.199 255.954,198.865 256.5,200.5C 258.008,203.801 259.675,206.801 261.5,209.5C 261.491,211.308 261.991,212.975 263,214.5C 265.364,217.69 267.864,220.69 270.5,223.5C 271.167,225.5 272.5,226.833 274.5,227.5C 275.167,230.167 276.833,231.833 279.5,232.5C 280.167,234.5 281.5,235.833 283.5,236.5C 283.833,237.5 284.5,238.167 285.5,238.5C 286.262,240.262 287.596,241.262 289.5,241.5C 291.118,243.316 293.118,244.649 295.5,245.5C 296.29,246.401 297.29,247.068 298.5,247.5C 298.833,247.5 299.167,247.5 299.5,247.5C 299.833,248.5 300.5,249.167 301.5,249.5C 302.708,250.234 304.041,250.567 305.5,250.5C 305.973,251.906 306.973,252.573 308.5,252.5C 309.167,252.5 309.833,252.5 310.5,252.5C 312.113,254.088 314.113,255.088 316.5,255.5C 317.167,255.5 317.833,255.5 318.5,255.5C 320.042,256.301 321.708,256.634 323.5,256.5C 323.5,256.833 323.5,257.167 323.5,257.5C 320.5,261.167 317.167,264.5 313.5,267.5C 312.833,268.167 312.167,268.833 311.5,269.5C 309.77,270.026 308.436,271.026 307.5,272.5C 307.167,272.5 306.833,272.5 306.5,272.5C 304.81,272.856 303.81,273.856 303.5,275.5C 300.366,276.241 297.366,277.241 294.5,278.5C 293.005,278.989 291.671,279.655 290.5,280.5C 289.292,281.234 287.959,281.567 286.5,281.5C 285.5,281.833 284.833,282.5 284.5,283.5C 283.833,283.5 283.167,283.5 282.5,283.5C 281.292,284.234 279.959,284.567 278.5,284.5C 277.167,284.5 275.833,284.5 274.5,284.5C 271.627,284.802 268.961,285.469 266.5,286.5C 265.833,286.5 265.167,286.5 264.5,286.5C 261.054,285.313 257.387,284.646 253.5,284.5C 251.5,284.5 249.5,284.5 247.5,284.5C 246.292,283.766 244.959,283.433 243.5,283.5C 242.5,283.5 241.5,283.5 240.5,283.5C 239.71,282.599 238.71,281.932 237.5,281.5C 236.041,281.567 234.708,281.234 233.5,280.5C 232.329,279.655 230.995,278.989 229.5,278.5C 228.5,278.5 227.5,278.5 226.5,278.5C 226.179,276.952 225.179,276.285 223.5,276.5C 223.158,275.662 222.492,275.328 221.5,275.5C 221.5,274.167 220.833,273.5 219.5,273.5C 219.158,272.662 218.492,272.328 217.5,272.5C 217.027,271.094 216.027,270.427 214.5,270.5C 214.5,269.833 214.167,269.5 213.5,269.5C 213.027,268.094 212.027,267.427 210.5,267.5C 209.415,265.413 207.749,264.08 205.5,263.5C 204.19,260.527 202.19,258.193 199.5,256.5C 199.573,254.973 198.906,253.973 197.5,253.5C 197.167,252.833 196.833,252.167 196.5,251.5C 195.488,250.128 194.488,248.795 193.5,247.5C 193.262,245.596 192.262,244.262 190.5,243.5C 190.771,241.62 190.104,240.287 188.5,239.5C 188.672,238.508 188.338,237.842 187.5,237.5C 187.88,235.302 187.213,233.635 185.5,232.5C 185.737,231.209 185.404,230.209 184.5,229.5C 184.662,227.473 184.495,225.473 184,223.5C 183.617,222.944 183.117,222.611 182.5,222.5C 182.354,218.481 182.021,214.481 181.5,210.5C 181.5,171.5 181.5,132.5 181.5,93.5C 182.492,93.6716 183.158,93.3382 183.5,92.5C 183.833,92.5 184.167,92.5 184.5,92.5C 186.738,90.8845 189.071,89.5512 191.5,88.5C 194.262,86.992 196.929,85.3253 199.5,83.5C 201.027,83.573 202.027,82.9063 202.5,81.5C 202.833,81.5 203.167,81.5 203.5,81.5C 204.71,81.0679 205.71,80.4013 206.5,79.5C 207.71,79.0679 208.71,78.4013 209.5,77.5C 210.167,77.5 210.5,77.1667 210.5,76.5C 211.492,76.6716 212.158,76.3382 212.5,75.5C 213.492,75.6716 214.158,75.3382 214.5,74.5C 218.766,72.8612 222.433,70.5279 225.5,67.5C 228.233,67.297 230.566,66.297 232.5,64.5C 234.23,63.9744 235.564,62.9744 236.5,61.5C 239.395,60.6006 242.062,59.2672 244.5,57.5C 246.389,56.396 248.055,55.0627 249.5,53.5 Z M 415.5,53.5 C 415.833,53.5 416.167,53.5 416.5,53.5C 416.833,53.5 417.167,53.5 417.5,53.5C 417.5,94.8333 417.5,136.167 417.5,177.5C 417.5,178.167 417.5,178.833 417.5,179.5C 417.037,182.482 416.704,185.482 416.5,188.5C 414.552,190.32 413.552,192.654 413.5,195.5C 413.5,195.833 413.5,196.167 413.5,196.5C 412.094,196.973 411.427,197.973 411.5,199.5C 411.167,200.167 410.833,200.833 410.5,201.5C 409.599,202.29 408.932,203.29 408.5,204.5C 407.512,205.795 406.512,207.128 405.5,208.5C 402.833,211.5 400.167,214.5 397.5,217.5C 395.77,218.026 394.436,219.026 393.5,220.5C 392.833,220.833 392.167,221.167 391.5,221.5C 388.953,222.934 386.619,224.6 384.5,226.5C 384.167,226.5 383.833,226.5 383.5,226.5C 381.77,227.026 380.436,228.026 379.5,229.5C 378.833,229.5 378.167,229.5 377.5,229.5C 375.545,229.799 374.211,230.799 373.5,232.5C 372.5,232.5 371.5,232.5 370.5,232.5C 368.694,233.024 367.028,233.691 365.5,234.5C 364.292,235.234 362.959,235.567 361.5,235.5C 359.621,236.341 357.621,236.675 355.5,236.5C 356.475,233.933 357.142,231.267 357.5,228.5C 357.5,226.5 357.5,224.5 357.5,222.5C 358.222,222.082 358.722,221.416 359,220.5C 359.87,187.652 359.37,154.985 357.5,122.5C 357.171,109.656 357.505,96.989 358.5,84.5C 359.71,84.0679 360.71,83.4013 361.5,82.5C 367.192,79.9911 372.526,76.9911 377.5,73.5C 378.833,73.1667 380.167,72.8333 381.5,72.5C 384.218,70.8277 386.885,69.161 389.5,67.5C 389.833,67.5 390.167,67.5 390.5,67.5C 392.23,66.9744 393.564,65.9744 394.5,64.5C 395.609,64.4431 396.609,64.1098 397.5,63.5C 399.027,63.573 400.027,62.9063 400.5,61.5C 401.609,61.4431 402.609,61.1098 403.5,60.5C 404.833,60.5 405.5,59.8333 405.5,58.5C 406.167,58.5 406.833,58.5 407.5,58.5C 408.71,58.0679 409.71,57.4013 410.5,56.5C 412.565,56.047 414.232,55.047 415.5,53.5 Z"/></g>
<g><path style="opacity:0.463" fill="#857fff" d="M 420.5,32.5 C 417.658,34.0173 414.658,35.0173 411.5,35.5C 414.074,34.119 416.574,32.4524 419,30.5C 419.717,31.0442 420.217,31.7109 420.5,32.5 Z"/></g>
<g><path style="opacity:0.216" fill="#918cff" d="M 421.5,32.5 C 422.5,32.8333 423.167,33.5 423.5,34.5C 423.19,35.7383 422.69,35.7383 422,34.5C 421.536,33.9056 421.369,33.2389 421.5,32.5 Z"/></g>
<g><path style="opacity:0.639" fill="#6a5bff" d="M 249.5,31.5 C 248.209,33.6186 246.375,35.2853 244,36.5C 243.601,36.2716 243.435,35.9382 243.5,35.5C 245.205,33.8079 247.205,32.4746 249.5,31.5 Z"/></g>
<g><path style="opacity:0.839" fill="#584aff" d="M 252.5,31.5 C 255.836,33.2003 258.836,35.2003 261.5,37.5C 257.427,36.9431 254.427,34.9431 252.5,31.5 Z"/></g>
<g><path style="opacity:0.463" fill="#8f8aff" d="M 242.5,35.5 C 242.179,37.0481 241.179,37.7148 239.5,37.5C 240.29,36.5987 241.29,35.9321 242.5,35.5 Z"/></g>
<g><path style="opacity:0.216" fill="#9a96ff" d="M 426.5,35.5 C 427.5,35.8333 428.167,36.5 428.5,37.5C 427.167,37.5 426.5,36.8333 426.5,35.5 Z"/></g>
<g><path style="opacity:0.051" fill="#918eff" d="M 428.5,37.5 C 430.153,37.6596 431.486,38.3263 432.5,39.5C 430.62,39.7709 429.287,39.1042 428.5,37.5 Z"/></g>
<g><path style="opacity:0.569" fill="#8d86ff" d="M 239.5,37.5 C 238.817,39.1765 237.483,39.8432 235.5,39.5C 236.671,38.6554 238.005,37.9887 239.5,37.5 Z"/></g>
<g><path style="opacity:0.051" fill="#9794ff" d="M 264.5,38.5 C 266.027,38.427 267.027,39.0937 267.5,40.5C 265.973,40.573 264.973,39.9063 264.5,38.5 Z"/></g>
<g><path style="opacity:0.216" fill="#a6a4ff" d="M 267.5,40.5 C 268.5,40.8333 269.167,41.5 269.5,42.5C 269.832,87.0031 269.499,131.336 268.5,175.5C 268.823,130.458 268.49,85.4576 267.5,40.5 Z"/></g>
<g><path style="opacity:0.051" fill="#8c89ff" d="M 269.5,42.5 C 270.499,87.6636 270.832,132.997 270.5,178.5C 268.952,178.179 268.285,177.179 268.5,175.5C 269.499,131.336 269.832,87.0031 269.5,42.5 Z"/></g>
<g><path style="opacity:0.631" fill="#756bff" d="M 234.5,40.5 C 233.191,43.4507 230.857,44.7841 227.5,44.5C 229.606,42.8783 231.939,41.545 234.5,40.5 Z"/></g>
<g><path style="opacity:0.631" fill="#514dff" d="M 433.5,40.5 C 434.583,40.5394 435.583,40.8728 436.5,41.5C 437.5,86.1617 437.833,130.828 437.5,175.5C 436.833,175.5 436.167,175.5 435.5,175.5C 435.667,131.165 435.5,86.8321 435,42.5C 434.283,41.9558 433.783,41.2891 433.5,40.5 Z"/></g>
<g><path style="opacity:0.216" fill="#9b97ff" d="M 395.5,43.5 C 394.789,45.2014 393.455,46.2014 391.5,46.5C 392.211,44.7986 393.545,43.7986 395.5,43.5 Z"/></g>
<g><path style="opacity:0.353" fill="#9390ff" d="M 223.5,46.5 C 223.179,48.0481 222.179,48.7148 220.5,48.5C 221.29,47.5987 222.29,46.9321 223.5,46.5 Z"/></g>
<g><path style="opacity:0.353" fill="#938fff" d="M 389.5,46.5 C 387.013,49.7084 383.679,51.7084 379.5,52.5C 382.527,50.2679 385.86,48.2679 389.5,46.5 Z"/></g>
<g><path style="opacity:0.353" fill="#8784ff" d="M 216.5,50.5 C 216.539,51.7562 216.039,52.7562 215,53.5C 214.601,53.2716 214.435,52.9382 214.5,52.5C 214.833,51.5 215.5,50.8333 216.5,50.5 Z"/></g>
<g><path style="opacity:0.3" fill="#2d27ff" d="M 253.5,184.5 C 253.11,181.203 252.11,178.203 250.5,175.5C 250.832,134.663 250.499,93.9966 249.5,53.5C 249.167,53.5 248.833,53.5 248.5,53.5C 249.287,51.8958 250.62,51.2291 252.5,51.5C 252.239,95.8425 252.572,140.176 253.5,184.5 Z"/></g>
<g><path style="opacity:0.639" fill="#6454ff" d="M 415.5,53.5 C 414.232,55.047 412.565,56.047 410.5,56.5C 411.098,53.1789 412.765,52.1789 415.5,53.5 Z"/></g>
<g><path style="opacity:0.353" fill="#8d8aff" d="M 417.5,177.5 C 417.5,136.167 417.5,94.8333 417.5,53.5C 417.167,53.5 416.833,53.5 416.5,53.5C 416.821,51.9519 417.821,51.2852 419.5,51.5C 420.161,93.8466 419.495,135.847 417.5,177.5 Z"/></g>
<g><path style="opacity:0.353" fill="#9490ff" d="M 213.5,52.5 C 212.965,54.4456 211.632,55.4456 209.5,55.5C 210.436,54.0256 211.77,53.0256 213.5,52.5 Z"/></g>
<g><path style="opacity:0.241" fill="#7062ff" d="M 248.5,53.5 C 248.833,53.5 249.167,53.5 249.5,53.5C 248.055,55.0627 246.389,56.396 244.5,57.5C 244.894,55.2901 246.227,53.9568 248.5,53.5 Z"/></g>
<g><path style="opacity:0.353" fill="#8c89ff" d="M 376.5,53.5 C 376.027,54.9063 375.027,55.573 373.5,55.5C 373.973,54.0937 374.973,53.427 376.5,53.5 Z"/></g>
<g><path style="opacity:0.463" fill="#8f8aff" d="M 208.5,55.5 C 208.179,57.0481 207.179,57.7148 205.5,57.5C 206.29,56.5987 207.29,55.9321 208.5,55.5 Z"/></g>
<g><path style="opacity:0.122" fill="#9995ff" d="M 410.5,56.5 C 409.71,57.4013 408.71,58.0679 407.5,58.5C 407.821,56.9519 408.821,56.2852 410.5,56.5 Z"/></g>
<g><path style="opacity:0.122" fill="#938dff" d="M 205.5,57.5 C 204.805,59.85 203.472,60.5167 201.5,59.5C 202.671,58.6554 204.005,57.9887 205.5,57.5 Z"/></g>
<g><path style="opacity:0.353" fill="#9a96ff" d="M 366.5,58.5 C 366.179,60.0481 365.179,60.7148 363.5,60.5C 364.29,59.5987 365.29,58.9321 366.5,58.5 Z"/></g>
<g><path style="opacity:0.051" fill="#938fff" d="M 405.5,58.5 C 405.5,59.8333 404.833,60.5 403.5,60.5C 403.833,59.5 404.5,58.8333 405.5,58.5 Z"/></g>
<g><path style="opacity:0.241" fill="#6f62ff" d="M 200.5,60.5 C 198.193,63.9956 194.86,65.9956 190.5,66.5C 193.606,64.2097 196.939,62.2097 200.5,60.5 Z"/></g>
<g><path style="opacity:0.353" fill="#8c87ff" d="M 363.5,60.5 C 363.289,62.4241 362.623,62.7574 361.5,61.5C 361.842,60.6618 362.508,60.3284 363.5,60.5 Z"/></g>
<g><path style="opacity:0.051" fill="#938fff" d="M 400.5,61.5 C 400.027,62.9063 399.027,63.573 397.5,63.5C 397.973,62.0937 398.973,61.427 400.5,61.5 Z"/></g>
<g><path style="opacity:0.051" fill="#8a86ff" d="M 236.5,61.5 C 235.564,62.9744 234.23,63.9744 232.5,64.5C 232.694,62.0882 234.027,61.0882 236.5,61.5 Z"/></g>
<g><path style="opacity:0.569" fill="#837eff" d="M 360.5,61.5 C 360.586,62.4959 360.252,63.3292 359.5,64C 358.054,65.298 356.721,65.4646 355.5,64.5C 357.001,63.2485 358.668,62.2485 360.5,61.5 Z"/></g>
<g><path style="opacity:0.353" fill="#938eff" d="M 354.5,64.5 C 353.335,67.5902 351.002,68.9236 347.5,68.5C 349.929,67.4488 352.262,66.1155 354.5,64.5 Z"/></g>
<g><path style="opacity:0.051" fill="#8c86ff" d="M 394.5,64.5 C 393.564,65.9744 392.23,66.9744 390.5,67.5C 390.694,65.0882 392.027,64.0882 394.5,64.5 Z"/></g>
<g><path style="opacity:0.353" fill="#9390ff" d="M 189.5,66.5 C 189.179,68.0481 188.179,68.7148 186.5,68.5C 187.29,67.5987 188.29,66.9321 189.5,66.5 Z"/></g>
<g><path style="opacity:0.28" fill="#6355ff" d="M 389.5,67.5 C 386.885,69.161 384.218,70.8277 381.5,72.5C 381.281,71.325 381.614,70.325 382.5,69.5C 384.507,68.8291 386.34,67.8291 388,66.5C 388.765,66.5699 389.265,66.9033 389.5,67.5 Z"/></g>
<g><path style="opacity:0.353" fill="#8e8aff" d="M 182.5,70.5 C 182.539,71.7562 182.039,72.7562 181,73.5C 180.601,73.2716 180.435,72.9382 180.5,72.5C 180.833,71.5 181.5,70.8333 182.5,70.5 Z"/></g>
<g><path style="opacity:0.32" fill="#5949ff" d="M 225.5,67.5 C 222.433,70.5279 218.766,72.8612 214.5,74.5C 215.909,72.5831 217.576,70.7498 219.5,69C 219.167,68.6667 218.833,68.3333 218.5,68C 220.956,68.0643 223.289,67.8977 225.5,67.5 Z"/></g>
<g><path style="opacity:0.353" fill="#908cff" d="M 179.5,72.5 C 179.25,73.9221 178.417,74.9221 177,75.5C 176.601,75.2716 176.435,74.9382 176.5,74.5C 177.29,73.5987 178.29,72.9321 179.5,72.5 Z"/></g>
<g><path style="opacity:0.122" fill="#a29eff" d="M 338.5,74.5 C 339.499,120.664 339.832,166.997 339.5,213.5C 339.339,216.68 338.339,219.347 336.5,221.5C 337.046,217.955 337.713,214.455 338.5,211C 337.746,165.377 337.746,119.877 338.5,74.5 Z"/></g>
<g><path style="opacity:0.569" fill="#6462ff" d="M 338.5,74.5 C 338.5,73.8333 338.833,73.5 339.5,73.5C 340.833,120.167 340.833,166.833 339.5,213.5C 339.832,166.997 339.499,120.664 338.5,74.5 Z"/></g>
<g><path style="opacity:1" fill="#4f3dff" d="M 377.5,73.5 C 372.526,76.9911 367.192,79.9911 361.5,82.5C 362.278,80.7753 362.611,79.1086 362.5,77.5C 364.413,76.627 366.247,75.627 368,74.5C 368.561,75.0219 369.228,75.3552 370,75.5C 372.497,74.7511 374.997,74.0845 377.5,73.5 Z"/></g>
<g><path style="opacity:0.122" fill="#9591ff" d="M 212.5,75.5 C 212.158,76.3382 211.492,76.6716 210.5,76.5C 211.006,74.8946 211.673,74.5613 212.5,75.5 Z"/></g>
<g><path style="opacity:0.698" fill="#7167ff" d="M 174.5,75.5 C 173.335,78.5902 171.002,79.9236 167.5,79.5C 169.791,78.235 172.125,76.9017 174.5,75.5 Z"/></g>
<g><path style="opacity:0.051" fill="#8d89ff" d="M 209.5,77.5 C 208.71,78.4013 207.71,79.0679 206.5,79.5C 206.369,78.6236 206.702,77.9569 207.5,77.5C 208.429,76.4502 209.095,76.4502 209.5,77.5 Z"/></g>
<g><path style="opacity:0.122" fill="#9e9aff" d="M 206.5,79.5 C 205.71,80.4013 204.71,81.0679 203.5,81.5C 203.821,79.9519 204.821,79.2852 206.5,79.5 Z"/></g>
<g><path style="opacity:0.051" fill="#8c89ff" d="M 202.5,81.5 C 202.027,82.9063 201.027,83.573 199.5,83.5C 199.973,82.0937 200.973,81.427 202.5,81.5 Z"/></g>
<g><path style="opacity:0.051" fill="#928fff" d="M 361.5,82.5 C 360.71,83.4013 359.71,84.0679 358.5,84.5C 358.821,82.9519 359.821,82.2852 361.5,82.5 Z"/></g>
<g><path style="opacity:0.353" fill="#8f8cff" d="M 163.5,81.5 C 163.5,126.5 163.5,171.5 163.5,216.5C 161.998,213.587 160.998,210.42 160.5,207C 161.33,165.571 161.83,124.071 162,82.5C 162.383,81.944 162.883,81.6107 163.5,81.5 Z"/></g>
<g><path style="opacity:0.329" fill="#7263ff" d="M 191.5,88.5 C 189.071,89.5512 186.738,90.8845 184.5,92.5C 184.5,91.5 184.5,90.5 184.5,89.5C 186.582,89.528 188.416,88.8613 190,87.5C 190.383,88.056 190.883,88.3893 191.5,88.5 Z"/></g>
<g><path style="opacity:0.122" fill="#9591ff" d="M 183.5,92.5 C 183.158,93.3382 182.492,93.6716 181.5,93.5C 182.006,91.8946 182.673,91.5613 183.5,92.5 Z"/></g>
<g><path style="opacity:0.051" fill="#9491ff" d="M 357.5,122.5 C 359.37,154.985 359.87,187.652 359,220.5C 358.722,221.416 358.222,222.082 357.5,222.5C 357.5,189.167 357.5,155.833 357.5,122.5 Z"/></g>
<g><path style="opacity:0.216" fill="#9d9aff" d="M 435.5,175.5 C 436.167,175.5 436.833,175.5 437.5,175.5C 437.889,178.553 437.223,181.22 435.5,183.5C 435.5,180.833 435.5,178.167 435.5,175.5 Z"/></g>
<g><path style="opacity:0.051" fill="#8d89ff" d="M 250.5,175.5 C 252.11,178.203 253.11,181.203 253.5,184.5C 254.623,186.979 254.623,189.312 253.5,191.5C 251.779,186.019 250.779,180.686 250.5,175.5 Z"/></g>
<g><path style="opacity:0.216" fill="#918cff" d="M 270.5,180.5 C 270.963,183.482 271.296,186.482 271.5,189.5C 269.518,186.627 269.185,183.627 270.5,180.5 Z"/></g>
<g><path style="opacity:0.353" fill="#918cff" d="M 417.5,179.5 C 418.815,182.627 418.482,185.627 416.5,188.5C 416.704,185.482 417.037,182.482 417.5,179.5 Z"/></g>
<g><path style="opacity:0.122" fill="#9995ff" d="M 435.5,183.5 C 435.11,186.839 434.61,190.173 434,193.5C 433.617,194.056 433.117,194.389 432.5,194.5C 432.882,190.554 433.882,186.888 435.5,183.5 Z"/></g>
<g><path style="opacity:0.353" fill="#928fff" d="M 253.5,192.5 C 255.048,192.821 255.715,193.821 255.5,195.5C 254.599,194.71 253.932,193.71 253.5,192.5 Z"/></g>
<g><path style="opacity:0.353" fill="#8f8bff" d="M 416.5,188.5 C 416.241,191.272 415.241,193.605 413.5,195.5C 413.552,192.654 414.552,190.32 416.5,188.5 Z"/></g>
<g><path style="opacity:0.051" fill="#9490ff" d="M 271.5,189.5 C 273.536,191.206 274.536,193.539 274.5,196.5C 272.935,194.491 271.935,192.157 271.5,189.5 Z"/></g>
<g><path style="opacity:0.216" fill="#9b96ff" d="M 413.5,196.5 C 413.573,198.027 412.906,199.027 411.5,199.5C 411.427,197.973 412.094,196.973 413.5,196.5 Z"/></g>
<g><path style="opacity:0.216" fill="#9e9bff" d="M 274.5,196.5 C 276.104,197.287 276.771,198.62 276.5,200.5C 275.326,199.486 274.66,198.153 274.5,196.5 Z"/></g>
<g><path style="opacity:0.216" fill="#8d87ff" d="M 432.5,196.5 C 431.95,199.927 430.616,202.927 428.5,205.5C 428.343,204.127 428.51,202.793 429,201.5C 429.737,199.404 430.903,197.737 432.5,196.5 Z"/></g>
<g><path style="opacity:0.569" fill="#8a84ff" d="M 410.5,201.5 C 410.715,203.179 410.048,204.179 408.5,204.5C 408.932,203.29 409.599,202.29 410.5,201.5 Z"/></g>
<g><path style="opacity:0.051" fill="#8c87ff" d="M 255.5,195.5 C 258.446,199.644 260.446,204.311 261.5,209.5C 259.675,206.801 258.008,203.801 256.5,200.5C 255.954,198.865 255.62,197.199 255.5,195.5 Z"/></g>
<g><path style="opacity:0.051" fill="#8b87ff" d="M 277.5,202.5 C 279.633,204.091 281.299,206.091 282.5,208.5C 279.438,207.732 277.772,205.732 277.5,202.5 Z"/></g>
<g><path style="opacity:0.353" fill="#8c88ff" d="M 408.5,204.5 C 408.912,206.973 407.912,208.306 405.5,208.5C 406.512,207.128 407.512,205.795 408.5,204.5 Z"/></g>
<g><path style="opacity:0.698" fill="#857cff" d="M 428.5,205.5 C 427.588,209.251 425.922,212.584 423.5,215.5C 424.282,211.64 425.949,208.307 428.5,205.5 Z"/></g>
<g><path style="opacity:0.051" fill="#8c87ff" d="M 285.5,212.5 C 288.833,216.5 292.5,220.167 296.5,223.5C 291.132,221.465 287.465,217.798 285.5,212.5 Z"/></g>
<g><path style="opacity:0.051" fill="#9894ff" d="M 423.5,215.5 C 423.573,217.027 422.906,218.027 421.5,218.5C 421.427,216.973 422.094,215.973 423.5,215.5 Z"/></g>
<g><path style="opacity:0.216" fill="#918dff" d="M 181.5,210.5 C 182.021,214.481 182.354,218.481 182.5,222.5C 180.511,218.598 180.177,214.598 181.5,210.5 Z"/></g>
<g><path style="opacity:0.353" fill="#8a86ff" d="M 397.5,217.5 C 396.793,219.134 395.627,220.468 394,221.5C 393.601,221.272 393.435,220.938 393.5,220.5C 394.436,219.026 395.77,218.026 397.5,217.5 Z"/></g>
<g><path style="opacity:0.051" fill="#8f8bff" d="M 261.5,209.5 C 264.996,213.819 267.996,218.485 270.5,223.5C 267.864,220.69 265.364,217.69 263,214.5C 261.991,212.975 261.491,211.308 261.5,209.5 Z"/></g>
<g><path style="opacity:0.051" fill="#938fff" d="M 419.5,222.5 C 418.5,224.167 417.167,225.5 415.5,226.5C 415.833,224.167 417.167,222.833 419.5,222.5 Z"/></g>
<g><path style="opacity:0.216" fill="#a09dff" d="M 182.5,222.5 C 183.117,222.611 183.617,222.944 184,223.5C 184.495,225.473 184.662,227.473 184.5,229.5C 183.388,227.401 182.721,225.067 182.5,222.5 Z"/></g>
<g><path style="opacity:0.631" fill="#7168ff" d="M 391.5,221.5 C 390.381,224.502 388.214,226.502 385,227.5C 384.601,227.272 384.435,226.938 384.5,226.5C 386.619,224.6 388.953,222.934 391.5,221.5 Z"/></g>
<g><path style="opacity:0.353" fill="#8d88ff" d="M 298.5,224.5 C 299.5,225.5 300.5,226.5 301.5,227.5C 301.095,228.55 300.429,228.55 299.5,227.5C 298.614,226.675 298.281,225.675 298.5,224.5 Z"/></g>
<g><path style="opacity:0.353" fill="#8a86ff" d="M 336.5,223.5 C 337.598,224.601 337.765,225.934 337,227.5C 335.947,231.41 334.447,235.077 332.5,238.5C 332.167,238.5 331.833,238.5 331.5,238.5C 333.324,233.529 334.991,228.529 336.5,223.5 Z"/></g>
<g><path style="opacity:0.051" fill="#8f8aff" d="M 163.5,219.5 C 164.117,219.611 164.617,219.944 165,220.5C 165.61,223.827 166.11,227.161 166.5,230.5C 164.925,227.626 163.592,224.459 162.5,221C 163.056,220.617 163.389,220.117 163.5,219.5 Z"/></g>
<g><path style="opacity:0.353" fill="#9491ff" d="M 383.5,226.5 C 382.965,228.446 381.632,229.446 379.5,229.5C 380.436,228.026 381.77,227.026 383.5,226.5 Z"/></g>
<g><path style="opacity:0.051" fill="#908dff" d="M 274.5,227.5 C 276.5,228.833 278.167,230.5 279.5,232.5C 276.833,231.833 275.167,230.167 274.5,227.5 Z"/></g>
<g><path style="opacity:0.241" fill="#685aff" d="M 303.5,228.5 C 306.132,229.472 308.465,230.805 310.5,232.5C 310.44,233.043 310.107,233.376 309.5,233.5C 306.574,232.735 304.574,231.068 303.5,228.5 Z"/></g>
<g><path style="opacity:0.353" fill="#9490ff" d="M 377.5,229.5 C 376.789,231.201 375.455,232.201 373.5,232.5C 374.211,230.799 375.545,229.799 377.5,229.5 Z"/></g>
<g><path style="opacity:0.216" fill="#9793ff" d="M 185.5,232.5 C 187.213,233.635 187.88,235.302 187.5,237.5C 186.069,236.22 185.402,234.553 185.5,232.5 Z"/></g>
<g><path style="opacity:0.353" fill="#9693ff" d="M 370.5,232.5 C 369.448,234.256 367.781,234.923 365.5,234.5C 367.028,233.691 368.694,233.024 370.5,232.5 Z"/></g>
<g><path style="opacity:0.051" fill="#8b85ff" d="M 279.5,232.5 C 281.5,233.167 282.833,234.5 283.5,236.5C 281.5,235.833 280.167,234.5 279.5,232.5 Z"/></g>
<g><path style="opacity:0.631" fill="#7166ff" d="M 312.5,232.5 C 314.809,232.988 316.809,233.988 318.5,235.5C 317.022,235.208 315.356,235.208 313.5,235.5C 312.614,234.675 312.281,233.675 312.5,232.5 Z"/></g>
<g><path style="opacity:0.051" fill="#938fff" d="M 357.5,228.5 C 357.142,231.267 356.475,233.933 355.5,236.5C 355.167,236.5 354.833,236.5 354.5,236.5C 354.661,233.32 355.661,230.653 357.5,228.5 Z"/></g>
<g><path style="opacity:0.216" fill="#9894ff" d="M 361.5,235.5 C 360.082,237.308 358.082,237.975 355.5,237.5C 355.5,237.167 355.5,236.833 355.5,236.5C 357.621,236.675 359.621,236.341 361.5,235.5 Z"/></g>
<g><path style="opacity:0.216" fill="#9692ff" d="M 166.5,232.5 C 168.241,234.395 169.241,236.728 169.5,239.5C 167.464,237.794 166.464,235.461 166.5,232.5 Z"/></g>
<g><path style="opacity:0.229" fill="#5145ff" d="M 320.5,235.5 C 324.028,237.033 327.695,238.033 331.5,238.5C 331.833,238.5 332.167,238.5 332.5,238.5C 332.631,239.376 332.298,240.043 331.5,240.5C 328.274,240.279 324.941,239.446 321.5,238C 320.748,237.329 320.414,236.496 320.5,235.5 Z"/></g>
<g><path style="opacity:0.051" fill="#9390ff" d="M 403.5,238.5 C 402.833,239.833 401.833,240.833 400.5,241.5C 400.685,239.804 401.519,238.471 403,237.5C 403.399,237.728 403.565,238.062 403.5,238.5 Z"/></g>
<g><path style="opacity:0.051" fill="#8d89ff" d="M 289.5,241.5 C 287.596,241.262 286.262,240.262 285.5,238.5C 285.435,238.062 285.601,237.728 286,237.5C 288.071,238.103 289.238,239.436 289.5,241.5 Z"/></g>
<g><path style="opacity:0.216" fill="#9a96ff" d="M 188.5,239.5 C 190.104,240.287 190.771,241.62 190.5,243.5C 189.326,242.486 188.66,241.153 188.5,239.5 Z"/></g>
<g><path style="opacity:0.216" fill="#9591ff" d="M 399.5,241.5 C 398.738,243.262 397.404,244.262 395.5,244.5C 396.035,242.554 397.368,241.554 399.5,241.5 Z"/></g>
<g><path style="opacity:0.051" fill="#9793ff" d="M 169.5,241.5 C 171.245,243.033 172.245,245.033 172.5,247.5C 170.621,246.105 169.621,244.105 169.5,241.5 Z"/></g>
<g><path style="opacity:0.216" fill="#9d9aff" d="M 295.5,245.5 C 297.179,245.285 298.179,245.952 298.5,247.5C 297.29,247.068 296.29,246.401 295.5,245.5 Z"/></g>
<g><path style="opacity:0.216" fill="#a19eff" d="M 299.5,247.5 C 300.167,247.5 300.833,247.5 301.5,247.5C 301.5,248.167 301.5,248.833 301.5,249.5C 300.5,249.167 299.833,248.5 299.5,247.5 Z"/></g>
<g><path style="opacity:0.122" fill="#9995ff" d="M 390.5,247.5 C 389.71,248.401 388.71,249.068 387.5,249.5C 387.821,247.952 388.821,247.285 390.5,247.5 Z"/></g>
<g><path style="opacity:0.698" fill="#6b60ff" d="M 301.5,247.5 C 303.455,247.799 304.789,248.799 305.5,250.5C 304.041,250.567 302.708,250.234 301.5,249.5C 301.5,248.833 301.5,248.167 301.5,247.5 Z"/></g>
<g><path style="opacity:0.051" fill="#8683ff" d="M 193.5,247.5 C 194.488,248.795 195.488,250.128 196.5,251.5C 194.088,251.306 193.088,249.973 193.5,247.5 Z"/></g>
<g><path style="opacity:0.122" fill="#a09cff" d="M 305.5,250.5 C 307.179,250.285 308.179,250.952 308.5,252.5C 306.973,252.573 305.973,251.906 305.5,250.5 Z"/></g>
<g><path style="opacity:0.122" fill="#9995ff" d="M 385.5,250.5 C 384.5,251.167 383.5,251.833 382.5,252.5C 382.668,249.949 383.668,249.282 385.5,250.5 Z"/></g>
<g><path style="opacity:0.051" fill="#9490ff" d="M 172.5,247.5 C 174.245,249.033 175.245,251.033 175.5,253.5C 173.755,251.967 172.755,249.967 172.5,247.5 Z"/></g>
<g><path style="opacity:0.216" fill="#9e9bff" d="M 310.5,252.5 C 313.105,252.621 315.105,253.621 316.5,255.5C 314.113,255.088 312.113,254.088 310.5,252.5 Z"/></g>
<g><path style="opacity:0.122" fill="#9d99ff" d="M 175.5,253.5 C 177.25,254.659 178.25,256.326 178.5,258.5C 176.75,257.341 175.75,255.674 175.5,253.5 Z"/></g>
<g><path style="opacity:0.329" fill="#6c5dff" d="M 379.5,253.5 C 378.341,255.25 376.674,256.25 374.5,256.5C 374.5,256.167 374.5,255.833 374.5,255.5C 375.78,254.069 377.447,253.402 379.5,253.5 Z"/></g>
<g><path style="opacity:0.353" fill="#908dff" d="M 197.5,253.5 C 198.906,253.973 199.573,254.973 199.5,256.5C 198.094,256.027 197.427,255.027 197.5,253.5 Z"/></g>
<g><path style="opacity:0.216" fill="#9692ff" d="M 318.5,255.5 C 318.56,254.957 318.893,254.624 319.5,254.5C 321.026,254.994 322.359,255.661 323.5,256.5C 321.708,256.634 320.042,256.301 318.5,255.5 Z"/></g>
<g><path style="opacity:0.216" fill="#908cff" d="M 374.5,255.5 C 374.5,255.833 374.5,256.167 374.5,256.5C 372.678,258.01 370.678,259.343 368.5,260.5C 369.606,257.923 371.606,256.256 374.5,255.5 Z"/></g>
<g><path style="opacity:0.051" fill="#8782ff" d="M 199.5,256.5 C 202.19,258.193 204.19,260.527 205.5,263.5C 202.757,261.761 200.757,259.427 199.5,256.5 Z"/></g>
<g><path style="opacity:0.122" fill="#a29fff" d="M 178.5,258.5 C 179.906,258.973 180.573,259.973 180.5,261.5C 179.094,261.027 178.427,260.027 178.5,258.5 Z"/></g>
<g><path style="opacity:0.122" fill="#938bff" d="M 180.5,261.5 C 182.048,261.821 182.715,262.821 182.5,264.5C 181.599,263.71 180.932,262.71 180.5,261.5 Z"/></g>
<g><path style="opacity:0.122" fill="#908aff" d="M 205.5,263.5 C 207.749,264.08 209.415,265.413 210.5,267.5C 208.251,266.92 206.585,265.587 205.5,263.5 Z"/></g>
<g><path style="opacity:0.463" fill="#8b86ff" d="M 323.5,257.5 C 322.221,261.302 319.888,264.469 316.5,267C 315.552,267.483 314.552,267.649 313.5,267.5C 317.167,264.5 320.5,261.167 323.5,257.5 Z"/></g>
<g><path style="opacity:0.051" fill="#908cff" d="M 365.5,261.5 C 362.394,263.79 359.061,265.79 355.5,267.5C 358.027,264.263 361.36,262.263 365.5,261.5 Z"/></g>
<g><path style="opacity:0.051" fill="#8985ff" d="M 183.5,265.5 C 185.452,266.785 187.118,268.451 188.5,270.5C 188.5,271.167 188.5,271.833 188.5,272.5C 186.478,270.469 184.811,268.135 183.5,265.5 Z"/></g>
<g><path style="opacity:0.122" fill="#9995ff" d="M 210.5,267.5 C 212.027,267.427 213.027,268.094 213.5,269.5C 211.973,269.573 210.973,268.906 210.5,267.5 Z"/></g>
<g><path style="opacity:0.18" fill="#4f46ff" d="M 188.5,270.5 C 191.859,273.529 195.192,276.529 198.5,279.5C 197.833,279.5 197.167,279.5 196.5,279.5C 193.833,277.167 191.167,274.833 188.5,272.5C 188.5,271.833 188.5,271.167 188.5,270.5 Z"/></g>
<g><path style="opacity:0.051" fill="#8a87ff" d="M 214.5,270.5 C 216.027,270.427 217.027,271.094 217.5,272.5C 216.242,273.016 215.242,272.35 214.5,270.5 Z"/></g>
<g><path style="opacity:0.353" fill="#8e89ff" d="M 311.5,269.5 C 310.965,271.446 309.632,272.446 307.5,272.5C 308.436,271.026 309.77,270.026 311.5,269.5 Z"/></g>
<g><path style="opacity:0.051" fill="#908cff" d="M 354.5,268.5 C 352.071,269.551 349.738,270.884 347.5,272.5C 347.414,271.504 347.748,270.671 348.5,270C 350.504,268.438 352.504,267.938 354.5,268.5 Z"/></g>
<g><path style="opacity:0.051" fill="#8d89ff" d="M 346.5,272.5 C 346.158,273.338 345.492,273.672 344.5,273.5C 345.006,271.895 345.673,271.561 346.5,272.5 Z"/></g>
<g><path style="opacity:0.051" fill="#8b87ff" d="M 219.5,273.5 C 220.833,273.5 221.5,274.167 221.5,275.5C 221.565,275.938 221.399,276.272 221,276.5C 220.487,275.473 219.987,274.473 219.5,273.5 Z"/></g>
<g><path style="opacity:0.216" fill="#9b98ff" d="M 306.5,272.5 C 306.19,274.144 305.19,275.144 303.5,275.5C 303.81,273.856 304.81,272.856 306.5,272.5 Z"/></g>
<g><path style="opacity:0.051" fill="#928eff" d="M 223.5,276.5 C 225.179,276.285 226.179,276.952 226.5,278.5C 225.29,278.068 224.29,277.401 223.5,276.5 Z"/></g>
<g><path style="opacity:0.051" fill="#8f8bff" d="M 339.5,276.5 C 338.71,277.401 337.71,278.068 336.5,278.5C 336.75,277.078 337.583,276.078 339,275.5C 339.399,275.728 339.565,276.062 339.5,276.5 Z"/></g>
<g><path style="opacity:0.122" fill="#9591ff" d="M 335.5,278.5 C 335.158,279.338 334.492,279.672 333.5,279.5C 334.006,277.895 334.673,277.561 335.5,278.5 Z"/></g>
<g><path style="opacity:0.353" fill="#9995ff" d="M 196.5,279.5 C 197.167,279.5 197.833,279.5 198.5,279.5C 198.833,280.167 199.167,280.833 199.5,281.5C 197.973,281.573 196.973,280.906 196.5,279.5 Z"/></g>
<g><path style="opacity:0.051" fill="#8f8cff" d="M 229.5,278.5 C 230.995,278.989 232.329,279.655 233.5,280.5C 231.517,280.843 230.183,280.176 229.5,278.5 Z"/></g>
<g><path style="opacity:0.216" fill="#9794ff" d="M 294.5,278.5 C 293.817,280.176 292.483,280.843 290.5,280.5C 291.671,279.655 293.005,278.989 294.5,278.5 Z"/></g>
<g><path style="opacity:0.051" fill="#908cff" d="M 237.5,281.5 C 238.71,281.932 239.71,282.599 240.5,283.5C 238.821,283.715 237.821,283.048 237.5,281.5 Z"/></g>
<g><path style="opacity:0.353" fill="#8682ff" d="M 286.5,281.5 C 287.66,283.203 286.993,283.869 284.5,283.5C 284.833,282.5 285.5,281.833 286.5,281.5 Z"/></g>
<g><path style="opacity:0.051" fill="#786dff" d="M 332.5,280.5 C 329.502,283.002 326.168,285.002 322.5,286.5C 322.414,285.504 322.748,284.671 323.5,284C 326.295,282.7 328.961,281.2 331.5,279.5C 332.107,279.624 332.44,279.957 332.5,280.5 Z"/></g>
<g><path style="opacity:0.353" fill="#908dff" d="M 243.5,283.5 C 244.959,283.433 246.292,283.766 247.5,284.5C 245.872,285.853 244.538,285.519 243.5,283.5 Z"/></g>
<g><path style="opacity:0.569" fill="#847fff" d="M 282.5,283.5 C 282.38,284.586 281.713,285.253 280.5,285.5C 279.584,285.457 278.917,285.124 278.5,284.5C 279.959,284.567 281.292,284.234 282.5,283.5 Z"/></g>
<g><path style="opacity:0.122" fill="#948fff" d="M 203.5,285.5 C 206.034,285.259 207.7,286.259 208.5,288.5C 206.632,287.737 204.965,286.737 203.5,285.5 Z"/></g>
<g><path style="opacity:0.122" fill="#9e9bff" d="M 253.5,285.5 C 253.5,285.167 253.5,284.833 253.5,284.5C 257.387,284.646 261.054,285.313 264.5,286.5C 260.766,286.677 257.099,286.344 253.5,285.5 Z"/></g>
<g><path style="opacity:0.216" fill="#9e9aff" d="M 274.5,284.5 C 274.5,285.833 273.833,286.5 272.5,286.5C 270.5,286.5 268.5,286.5 266.5,286.5C 268.961,285.469 271.627,284.802 274.5,284.5 Z"/></g>
<g><path style="opacity:0.631" fill="#514dff" d="M 253.5,285.5 C 257.099,286.344 260.766,286.677 264.5,286.5C 265.167,286.5 265.833,286.5 266.5,286.5C 268.5,286.5 270.5,286.5 272.5,286.5C 266.681,287.653 260.681,287.819 254.5,287C 253.833,286.667 253.167,286.333 252.5,286C 252.728,285.601 253.062,285.435 253.5,285.5 Z"/></g>
<g><path style="opacity:0.122" fill="#9b97ff" d="M 319.5,287.5 C 318.564,288.974 317.23,289.974 315.5,290.5C 316.035,288.554 317.368,287.554 319.5,287.5 Z"/></g>
<g><path style="opacity:0.122" fill="#9590ff" d="M 217.5,293.5 C 215.597,293.204 213.93,292.537 212.5,291.5C 214.548,290.674 216.215,291.341 217.5,293.5 Z"/></g>
<g><path style="opacity:0.18" fill="#6b5cff" d="M 314.5,290.5 C 313.232,292.047 311.565,293.047 309.5,293.5C 310.048,290.916 311.715,289.916 314.5,290.5 Z"/></g>
<g><path style="opacity:0.122" fill="#a29fff" d="M 308.5,293.5 C 308.167,294.5 307.5,295.167 306.5,295.5C 306.5,294.167 307.167,293.5 308.5,293.5 Z"/></g>
<g><path style="opacity:0.216" fill="#9b97ff" d="M 218.5,293.5 C 220.565,293.953 222.232,294.953 223.5,296.5C 221.518,296.005 219.518,295.505 217.5,295C 218.056,294.617 218.389,294.117 218.5,293.5 Z"/></g>
<g><path style="opacity:0.216" fill="#9b97ff" d="M 224.5,296.5 C 226.553,296.402 228.22,297.069 229.5,298.5C 227.302,298.88 225.635,298.213 224.5,296.5 Z"/></g>
<g><path style="opacity:0.216" fill="#9a97ff" d="M 302.5,296.5 C 302.027,297.906 301.027,298.573 299.5,298.5C 299.821,296.952 300.821,296.285 302.5,296.5 Z"/></g>
<g><path style="opacity:0.051" fill="#8c89ff" d="M 297.5,298.5 C 297.591,300.698 296.925,301.031 295.5,299.5C 296.006,297.895 296.673,297.561 297.5,298.5 Z"/></g>
<g><path style="opacity:0.216" fill="#9d9aff" d="M 232.5,299.5 C 234.179,299.285 235.179,299.952 235.5,301.5C 234.29,301.068 233.29,300.401 232.5,299.5 Z"/></g>
<g><path style="opacity:0.216" fill="#9692ff" d="M 294.5,299.5 C 293.71,300.401 292.71,301.068 291.5,301.5C 291.389,300.883 291.056,300.383 290.5,300C 291.793,299.51 293.127,299.343 294.5,299.5 Z"/></g>
<g><path style="opacity:0.839" fill="#695aff" d="M 243.5,302.5 C 241.901,302.768 240.568,302.434 239.5,301.5C 239.917,300.876 240.584,300.543 241.5,300.5C 242.713,300.747 243.38,301.414 243.5,302.5 Z"/></g>
<g><path style="opacity:0.216" fill="#9b98ff" d="M 243.5,302.5 C 246.187,302.336 248.854,302.503 251.5,303C 250.944,303.383 250.611,303.883 250.5,304.5C 247.933,304.279 245.599,303.612 243.5,302.5 Z"/></g>
<g><path style="opacity:0.051" fill="#8e89ff" d="M 287.5,301.5 C 282.718,303.328 277.718,304.662 272.5,305.5C 273.808,304.768 275.142,303.934 276.5,303C 279.921,302.899 283.088,302.066 286,300.5C 286.765,300.57 287.265,300.903 287.5,301.5 Z"/></g>
<g><path style="opacity:0.353" fill="#9692ff" d="M 267.5,305.5 C 264.167,305.5 260.833,305.5 257.5,305.5C 258.946,304.06 260.779,303.393 263,303.5C 265.008,303.307 266.508,303.974 267.5,305.5 Z"/></g>
</svg>
